<?xml version="1.0" standalone="no"?>
<!DOCTYPE svg PUBLIC "-//W3C//DTD SVG 20010904//EN"
 "http://www.w3.org/TR/2001/REC-SVG-20010904/DTD/svg10.dtd">
<svg version="1.0" xmlns="http://www.w3.org/2000/svg"
 width="4168.000000pt" height="4167.000000pt" viewBox="0 0 4168.000000 4167.000000"
 preserveAspectRatio="xMidYMid meet">

<g transform="translate(0.000000,4167.000000) scale(0.100000,-0.100000)"
fill="#000000" stroke="none">
<path d="M27558 31632 l-4318 -1867 0 -1927 0 -1927 63 27 c35 15 1981 855
4325 1867 l4261 1840 1 1928 c0 1060 -3 1927 -7 1926 -5 -1 -1951 -841 -4325
-1867z"/>
<path d="M17743 30302 l-3023 -1327 0 -1927 0 -1928 23 10 c12 6 1374 604
3027 1329 l3005 1318 3 1926 c1 1060 -1 1927 -5 1926 -5 0 -1368 -597 -3030
-1327z"/>
<path d="M11020 30302 l-1225 -538 -3 -1927 c-1 -1060 0 -1927 1 -1927 2 0
557 242 1233 538 l1229 539 3 1926 c1 1060 -1 1927 -5 1926 -5 0 -559 -242
-1233 -537z"/>
<path d="M27565 22461 l-4320 -1867 -3 -1928 c-2 -1541 0 -1927 10 -1923 7 2
1954 843 4326 1867 l4312 1863 0 1929 c0 1060 -1 1928 -2 1927 -2 0 -1947
-841 -4323 -1868z"/>
<path d="M18155 21310 c-1441 -633 -2806 -1232 -3032 -1331 l-413 -182 0
-1924 c0 -1684 2 -1924 15 -1921 8 2 1373 599 3035 1328 l3020 1325 0 1928 c0
1060 -1 1927 -2 1927 -2 -1 -1182 -518 -2623 -1150z"/>
<path d="M11010 21124 l-1215 -533 0 -6208 0 -6208 1228 -3 1227 -2 0 3857 c0
2122 3 5157 7 6746 6 2841 6 2887 -13 2886 -10 -1 -566 -241 -1234 -535z"/>
</g>
</svg>
